{
  "source": "C:\\Users\\Peter\\Desktop\\stuff\\MIUN\\quantitative_research\\video_compression\\videos\\BVI-HD\\BVI-HD_CDVL_videos\\ORIG\\Rowing_1920x1080_30fps.mp4",
  "output": "C:\\Users\\Peter\\Desktop\\stuff\\MIUN\\quantitative_research\\video_compression\\compressed_videos\\BVI-HD\\av1\\1\\Rowing_1920x1080_30fps_av1.mkv",
  "codec": "av1",
  "ok": "Input #0, mov,mp4,m4a,3gp,3g2,mj2, from 'C:\\Users\\Peter\\Desktop\\stuff\\MIUN\\quantitative_research\\video_compression\\videos\\BVI-HD\\BVI-HD_CDVL_videos\\ORIG\\Rowing_1920x1080_30fps.mp4':\n  Metadata:\n    major_brand     : isom\n    minor_version   : 512\n    compatible_brands: isomiso2avc1mp41\n    encoder         : Lavf54.28.101\n  Duration: 00:00:05.00, start: 0.000000, bitrate: 259220 kb/s\n  Stream #0:0[0x1](und): Video: h264 (High 4:4:4 Predictive) (avc1 / 0x31637661), yuv420p(progressive), 1920x1080, 259216 kb/s, 30 fps, 30 tbr, 30 tbn (default)\n    Metadata:\n      handler_name    : VideoHandler\n      vendor_id       : [0][0][0][0]\n[out#0/matroska @ 000002075583f040] Codec AVOption b:a (set bitrate (in bits/s)) has not been used for any stream. The most likely reason is either wrong type (e.g. a video option with no video streams) or that it is a private option of some decoder which was not actually used for any stream.\nStream mapping:\n  Stream #0:0 -> #0:0 (h264 (native) -> av1 (libsvtav1))\nPress [q] to stop, [?] for help\nSvt[info]: -------------------------------------------\nSvt[info]: SVT [version]:\tSVT-AV1 Encoder Lib v3.1.0-19-g6ecfe8ec\nSvt[info]: SVT [build]  :\tGCC 15.2.0\t 64 bit\nSvt[info]: LIB Build date: Aug 17 2025 11:37:13\nSvt[info]: -------------------------------------------\nSvt[info]: Level of Parallelism: 5\nSvt[info]: Number of PPCS 93\nSvt[info]: [asm level on system : up to avx2]\nSvt[info]: [asm level selected : up to avx2]\nSvt[info]: -------------------------------------------\nSvt[info]: SVT [config]: main profile\ttier (auto)\tlevel (auto)\nSvt[info]: SVT [config]: width / height / fps numerator / fps denominator \t\t: 1920 / 1080 / 30 / 1\nSvt[info]: SVT [config]: bit-depth / color format \t\t\t\t\t: 8 / YUV420\nSvt[info]: SVT [config]: preset / tune / pred struct \t\t\t\t\t: 4 / PSNR / random access\nSvt[info]: SVT [config]: gop size / mini-gop size / key-frame type \t\t\t: 161 / 16 / key frame\nSvt[info]: SVT [config]: BRC mode / target bitrate (kbps)\t\t\t\t: VBR / 1000 \nSvt[info]: SVT [config]: AQ mode / Variance Boost \t\t\t\t\t: 2 / 0\nSvt[info]: SVT [config]: sharpness / luminance-based QP bias \t\t\t\t: 0 / 0\nSvt[info]: SVT [config]: QP scale compress strength \t\t\t\t\t: 0\nSvt[info]: -------------------------------------------\nOutput #0, matroska, to 'C:\\Users\\Peter\\Desktop\\stuff\\MIUN\\quantitative_research\\video_compression\\compressed_videos\\BVI-HD\\av1\\1\\Rowing_1920x1080_30fps_av1.mkv':\n  Metadata:\n    major_brand     : isom\n    minor_version   : 512\n    compatible_brands: isomiso2avc1mp41\n    encoder         : Lavf62.3.100\n  Stream #0:0(und): Video: av1 (AV01 / 0x31305641), yuv420p(tv, progressive), 1920x1080, q=2-31, 1000 kb/s, 30 fps, 1k tbn (default)\n    Metadata:\n      encoder         : Lavc62.11.100 libsvtav1\n      handler_name    : VideoHandler\n      vendor_id       : [0][0][0][0]\n    Side data:\n      cpb: bitrate max/min/avg: 0/0/1000000 buffer size: 1000000 vbv_delay: N/A\nframe=    0 fps=0.0 q=0.0 size=       0KiB time=N/A bitrate=N/A speed=N/A elapsed=0:00:01.10    \nframe=    0 fps=0.0 q=0.0 size=       0KiB time=N/A bitrate=N/A speed=N/A elapsed=0:00:01.75    \nframe=    0 fps=0.0 q=0.0 size=       0KiB time=N/A bitrate=N/A speed=N/A elapsed=0:00:02.44    \nframe=    0 fps=0.0 q=0.0 size=       0KiB time=N/A bitrate=N/A speed=N/A elapsed=0:00:03.04    \nframe=    0 fps=0.0 q=0.0 size=       0KiB time=N/A bitrate=N/A speed=N/A elapsed=0:00:03.57    \nframe=    0 fps=0.0 q=0.0 size=       0KiB time=N/A bitrate=N/A speed=N/A elapsed=0:00:04.20    \nframe=    0 fps=0.0 q=0.0 size=       0KiB time=N/A bitrate=N/A speed=N/A elapsed=0:00:04.86    \nframe=    1 fps=0.2 q=59.0 size=       1KiB time=00:00:00.00 bitrate=N/A speed=   0x elapsed=0:00:05.50    \nframe=    1 fps=0.2 q=59.0 size=       1KiB time=00:00:00.00 bitrate=N/A speed=   0x elapsed=0:00:06.08    \nframe=    5 fps=0.8 q=63.0 size=       1KiB time=00:00:00.13 bitrate=  42.8kbits/s speed=0.0202x elapsed=0:00:06.60    \nframe=    8 fps=1.1 q=63.0 size=       1KiB time=00:00:00.23 bitrate=  24.4kbits/s speed=0.0326x elapsed=0:00:07.16    \nframe=   13 fps=1.7 q=62.0 size=       1KiB time=00:00:00.40 bitrate=  14.3kbits/s speed=0.0519x elapsed=0:00:07.71    \nframe=   18 fps=2.2 q=60.0 size=       1KiB time=00:00:00.56 bitrate=  10.1kbits/s speed=0.0687x elapsed=0:00:08.25    \nframe=   20 fps=2.3 q=60.0 size=       1KiB time=00:00:00.63 bitrate=   9.0kbits/s speed=0.0721x elapsed=0:00:08.78    \nframe=   23 fps=2.5 q=60.0 size=       1KiB time=00:00:00.70 bitrate=   8.1kbits/s speed=0.075x elapsed=0:00:09.33    \nframe=   25 fps=2.5 q=60.0 size=       1KiB time=00:00:00.80 bitrate=   7.1kbits/s speed=0.081x elapsed=0:00:09.88    \nframe=   28 fps=2.7 q=61.0 size=       1KiB time=00:00:00.90 bitrate=   6.3kbits/s speed=0.0863x elapsed=0:00:10.43    \nframe=   31 fps=2.8 q=60.0 size=       1KiB time=00:00:01.00 bitrate=   5.7kbits/s speed=0.0909x elapsed=0:00:11.00    \nframe=   34 fps=2.9 q=60.0 size=       1KiB time=00:00:01.10 bitrate=   5.2kbits/s speed=0.0952x elapsed=0:00:11.55    \nframe=   37 fps=3.1 q=60.0 size=       1KiB time=00:00:01.16 bitrate=   4.9kbits/s speed=0.0965x elapsed=0:00:12.08    \nframe=   39 fps=3.1 q=60.0 size=       1KiB time=00:00:01.26 bitrate=   4.5kbits/s speed=0.0999x elapsed=0:00:12.68    \nframe=   41 fps=3.1 q=60.0 size=       1KiB time=00:00:01.33 bitrate=   4.3kbits/s speed= 0.1x elapsed=0:00:13.29    \nframe=   45 fps=3.2 q=60.0 size=       1KiB time=00:00:01.43 bitrate=   4.0kbits/s speed=0.103x elapsed=0:00:13.87    \nframe=   49 fps=3.4 q=57.0 size=       1KiB time=00:00:01.60 bitrate=   3.6kbits/s speed=0.111x elapsed=0:00:14.44    \nframe=   52 fps=3.5 q=61.0 size=       1KiB time=00:00:01.70 bitrate=   3.4kbits/s speed=0.113x elapsed=0:00:14.97    \nframe=   57 fps=3.7 q=57.0 size=       1KiB time=00:00:01.86 bitrate=   3.1kbits/s speed=0.12x elapsed=0:00:15.52    \nframe=   57 fps=3.5 q=57.0 size=       1KiB time=00:00:01.86 bitrate=   3.1kbits/s speed=0.116x elapsed=0:00:16.09    \nframe=   61 fps=3.6 q=59.0 size=       1KiB time=00:00:02.00 bitrate=   2.9kbits/s speed=0.12x elapsed=0:00:16.72    \nframe=   63 fps=3.6 q=60.0 size=       1KiB time=00:00:02.06 bitrate=   2.8kbits/s speed=0.12x elapsed=0:00:17.26    \nframe=   69 fps=3.9 q=59.0 size=       1KiB time=00:00:02.26 bitrate=   2.5kbits/s speed=0.127x elapsed=0:00:17.80    \nframe=   73 fps=4.0 q=57.0 size=       1KiB time=00:00:02.40 bitrate=   2.4kbits/s speed=0.131x elapsed=0:00:18.38    \nframe=   77 fps=4.1 q=59.0 size=       1KiB time=00:00:02.53 bitrate=   2.3kbits/s speed=0.134x elapsed=0:00:18.95    \nframe=   85 fps=4.4 q=62.0 size=       1KiB time=00:00:02.80 bitrate=   2.0kbits/s speed=0.144x elapsed=0:00:19.47    \nframe=   91 fps=4.5 q=62.0 size=       1KiB time=00:00:03.00 bitrate=   1.9kbits/s speed=0.15x elapsed=0:00:20.00    \nframe=   97 fps=4.7 q=57.0 size=       1KiB time=00:00:03.20 bitrate=   1.8kbits/s speed=0.156x elapsed=0:00:20.51    \nframe=  105 fps=5.0 q=61.0 size=       1KiB time=00:00:03.46 bitrate=   1.6kbits/s speed=0.165x elapsed=0:00:21.03    \nframe=  109 fps=5.1 q=61.0 size=       1KiB time=00:00:03.60 bitrate=   1.6kbits/s speed=0.167x elapsed=0:00:21.56    \nframe=  119 fps=5.4 q=62.0 size=       1KiB time=00:00:03.93 bitrate=   1.5kbits/s speed=0.178x elapsed=0:00:22.10    \nframe=  125 fps=5.5 q=62.0 size=       1KiB time=00:00:04.13 bitrate=   1.4kbits/s speed=0.183x elapsed=0:00:22.62    \nframe=  137 fps=5.9 q=62.0 size=       1KiB time=00:00:04.53 bitrate=   1.3kbits/s speed=0.196x elapsed=0:00:23.15    \n[out#0/matroska @ 000002075583f040] video:484KiB audio:0KiB subtitle:0KiB other streams:0KiB global headers:0KiB muxing overhead: 0.290765%\nframe=  150 fps=6.4 q=63.0 Lsize=     485KiB time=00:00:04.96 bitrate= 800.6kbits/s speed=0.211x elapsed=0:00:23.54    \n",
  "seconds": 24.07297968864441,
  "probe_out": {}
}